<svg id="Layer_1" data-name="Layer 1" xmlns="http://www.w3.org/2000/svg" viewBox="0 0 2890.62 626.5"><defs><style>.cls-1{stroke:#000;stroke-miterlimit:10;}</style></defs><path class="cls-1" d="M553.27,520.83l21.47,86.09,46.33-86.09h35.79l6.37,135.6H629.82L626,569.94l-47.12,86.49H557.84l-22.47-89.27-29.43,89.27H471.75l44.73-135.6Z" transform="translate(-355.07 -184.23)"/><path class="cls-1" d="M1032.44,520.83l-8.55,57.66,55.48-57.66h41l-58.86,60.84,49.91,74.76h-39.57l-48.71-72.37-10.94,72.37h-34.8l20.28-135.6Z" transform="translate(-355.07 -184.23)"/><path class="cls-1" d="M1233.86,520.83l-3.58,26.44H1175.4l-3.78,26.25h47.72l-3.78,26.24h-48.12L1163.27,630h66.61l-3.58,26.44H1124.5l19.68-135.6Z" transform="translate(-355.07 -184.23)"/><path class="cls-1" d="M1311,520.83c36.39,0,52.89,13.52,52.89,37.78,0,23.26-15.31,35-32.41,38.37,8.15,3.78,12.33,8.55,20.28,24.86l16.9,34.59h-38l-14.51-30C1305,603.14,1300.46,603,1291.71,603h-4.17l-8,53.48H1245l19.68-135.6Zm-15.11,25.45-5.17,32.41h13.52c16.7,0,23.06-8.55,23.06-17.3,0-11.53-7.15-15.11-20.08-15.11Z" transform="translate(-355.07 -184.23)"/><path class="cls-1" d="M1494.12,520.83l-20.28,135.6H1439l20.28-135.6Z" transform="translate(-355.07 -184.23)"/><path class="cls-1" d="M1524.34,520.83h32.81L1610,602.15l12.32-81.32h34.8l-20.28,135.6h-32.61l-52.89-81.32-12.33,81.32h-34.8Z" transform="translate(-355.07 -184.23)"/><path class="cls-1" d="M1727.74,520.83c53.29,0,78.54,27,78.54,66.41,0,28-10.14,46.92-28,57.86-15.31,9.54-34,11.33-63.23,11.33h-47.73l19.49-135.6Zm-21.67,108.76h19.09c29,0,45.53-14.91,45.53-42,0-21.88-11.93-40-46.93-40h-5.56Z" transform="translate(-355.07 -184.23)"/><path class="cls-1" d="M1874.87,520.83l-10.34,70.78a73.76,73.76,0,0,0-.79,10.14c0,17.9,10.14,25.85,29.43,25.85,19.88,0,30.82-10.54,33.6-28.83l11.93-77.94h34.8l-11.93,83.11c-5.37,36.79-32.61,54.28-73,54.28-35.39,0-60.44-18.89-60.44-50.1,0-3.58.2-9.75,2-21.68l9.95-65.61Z" transform="translate(-355.07 -184.23)"/><path class="cls-1" d="M2076.09,528.78l-4.38,27c-8.74-5.57-18.88-10.54-30.62-10.54-9.34,0-13.72,5.57-13.72,11.73,0,7.36,4.18,10.74,14.92,19.29,20.08,16.11,26.44,25.85,26.44,41.36,0,18.49-11.93,40.56-46.72,40.56-14.72,0-30.63-4-43.35-11.73l4.17-27.64c15.32,9.55,25.65,13.13,34.4,13.13,10.14,0,15.11-6.76,15.11-14.32,0-7.36-3-10.94-16.5-23.07C1993.57,574.71,1991,567.75,1991,556c0-17.3,12.92-37,44.14-37A92,92,0,0,1,2076.09,528.78Z" transform="translate(-355.07 -184.23)"/><path class="cls-1" d="M2211.89,520.83l-4.17,30.22h-43.95l-15.9,105.38h-34.8L2129,551.05h-43.75l4.38-30.22Z" transform="translate(-355.07 -184.23)"/><path class="cls-1" d="M2277.3,520.83c36.39,0,52.89,13.52,52.89,37.78,0,23.26-15.31,35-32.41,38.37,8.16,3.78,12.33,8.55,20.28,24.86L2335,656.43h-38l-14.52-30C2271.34,603.14,2266.76,603,2258,603h-4.18l-8,53.48h-34.6L2231,520.83Zm-15.11,25.45L2257,578.69h13.52c16.71,0,23.07-8.55,23.07-17.3,0-11.53-7.16-15.11-20.09-15.11Z" transform="translate(-355.07 -184.23)"/><path class="cls-1" d="M2404.75,520.83l-20.28,135.6h-34.8L2370,520.83Z" transform="translate(-355.07 -184.23)"/><path class="cls-1" d="M2524.25,520.83l-3.58,26.44h-54.88L2462,573.52h47.72L2506,599.76h-48.12L2453.66,630h66.61l-3.58,26.44h-101.8l19.68-135.6Z" transform="translate(-355.07 -184.23)"/><path class="cls-1" d="M2628.63,528.78l-4.37,27c-8.75-5.57-18.89-10.54-30.63-10.54-9.34,0-13.71,5.57-13.71,11.73,0,7.36,4.17,10.74,14.91,19.29,20.08,16.11,26.44,25.85,26.44,41.36,0,18.49-11.93,40.56-46.72,40.56-14.72,0-30.62-4-43.35-11.73l4.18-27.64C2550.69,628.4,2561,632,2569.77,632c10.15,0,15.12-6.76,15.12-14.32,0-7.36-3-10.94-16.51-23.07-22.27-19.88-24.85-26.84-24.85-38.57,0-17.3,12.92-37,44.14-37A92,92,0,0,1,2628.63,528.78Z" transform="translate(-355.07 -184.23)"/><g id="Avengers_Logo" data-name="Avengers Logo"><path id="path3" class="cls-1" d="M816.79,458.33C751.73,461.67,700,516.07,700,582.68a125,125,0,0,0,16.19,61.76l-12.48,24.22a148.7,148.7,0,0,1-27.16-86c0-81.86,65.62-148.23,146.58-148.23,1.16,0,2.31,0,3.46,0l21.17-43.14H893v61a148.45,148.45,0,0,1,76.71,130.34c0,81.86-65.62,148.23-146.58,148.23a144.68,144.68,0,0,1-68.42-17.1L765,692.49a121.56,121.56,0,0,0,58.1,14.7c68,0,123.13-55.74,123.13-124.51A124.79,124.79,0,0,0,892,479.43V597.27l-41.33-39.09V468.87l-51,121.21h51V570.63l47.85,45-49.45,38V633.47H781.72L737.38,733.63l-54.88-1.07Z" transform="translate(-355.07 -184.23)"/><polygon id="polygon5" class="cls-1" points="493.92 483.13 536.82 446.39 536.82 483.13 493.92 483.13"/></g><polyline class="cls-1" points="1339.26 182.11 2579.86 165.59 2222.68 626.14 2889.29 0.57 0.57 146.43 7.37 198.61 1339.26 182.11"/></svg>