<?xml version="1.0" encoding="utf-8"?>
<!-- Generator: Adobe Illustrator 23.0.1, SVG Export Plug-In . SVG Version: 6.00 Build 0)  -->
<svg version="1.1" id="Layer_1" xmlns="http://www.w3.org/2000/svg" xmlns:xlink="http://www.w3.org/1999/xlink" x="0px" y="0px"
	 viewBox="0 0 700 175" style="enable-background:new 0 0 700 175;" xml:space="preserve">
<style type="text/css">
	.st0{fill:#63666A;}
	.st1{fill:#FF6A13;}
	.st2{fill-rule:evenodd;clip-rule:evenodd;fill:#FF6A13;}
</style>
<g>
	<g id="XMLID_1_">
		<g>
			<path class="st0" d="M536.6,79.7v0.7h-47.7c1.8,9.1,9.4,15.1,19.2,15.1c6.5,0,12.5-3,17.4-8.8l0.4-0.5l8.5,6.8l-0.5,0.6
				c-7.6,8.4-15.7,12.3-25.7,12.3c-20.4,0-31.1-15.1-31.1-30c0-17.3,12.4-29.9,29.5-29.9C524.6,46.1,536.6,59.6,536.6,79.7z
				 M488.9,71.1h35.3c-1.3-8.6-8.4-14.6-17.7-14.6C495.3,56.5,490.1,64.2,488.9,71.1z"/>
			<path class="st0" d="M468.7,94.8c11.3,0,9.9,9.9,9.9,9.9h-47.9L460,57.2c0,0-10.9,0-20.2,0c-9.4,0-8.3-9.9-8.3-9.9h47l-28.9,47.4
				C449.5,94.8,461.4,94.8,468.7,94.8z"/>
			<path class="st0" d="M422.7,58.1c0,9.6,0,34.7,0,47h-11V47.5C411.6,47.5,422.7,45.1,422.7,58.1z"/>
			<path class="st0" d="M416.5,28.3c3.9,0,7,3.1,7,7s-3.1,7-7,7c-3.8,0-6.9-3.1-6.9-7S412.7,28.3,416.5,28.3z"/>
			<path class="st0" d="M404.6,94.2v10.4H400c-10,0-15.5-6.2-15.5-17.4V21.8c0,0,11-2.3,11,10.7c0,13,0,54,0,54c0,4.9,2,7.8,5.5,7.8
				H404.6z"/>
			<path class="st0" d="M375.9,65.8v38.9h-10.4v-5c-4.7,4.4-10,6.3-17.1,6.3c-14.7,0-25-8.5-25-20.7c0-9.6,7.8-19.9,24.9-19.9
				c6.3,0,12,1.9,16.6,5.5v-4.3c0-8.7-8.7-10.6-16-10.6c-5,0-9.9,1.2-15.1,3.8l-0.6,0.3l-4.8-9.3l0.7-0.3c7-2.9,13.7-4.4,20.4-4.4
				C361.6,46.1,375.9,51.3,375.9,65.8z M363.6,85.6c0-6.6-5.3-10.5-14.2-10.5c-8.9,0-14.2,3.9-14.2,10.5c0,6.5,5.3,10.5,14.2,10.5
				C358.2,96.1,363.6,92.2,363.6,85.6z"/>
			<path class="st0" d="M320.1,53.7l-7.5,8.7l-0.5-0.5c-3.7-3.6-7.8-5.4-12.5-5.4c-8.8,0-17.8,6.2-17.8,20c0,11,7.9,19,18.7,19
				c3.9,0,8.2-2,12-5.5l0.5-0.5l6.5,8.1l-0.4,0.4c-4.9,5.1-12,7.8-19.8,7.8c-16.7,0-29.2-12.8-29.2-29.7c0-16.6,13.2-30.1,29.3-30.1
				c8.7,0,16.1,3.7,20.1,7.1L320.1,53.7z"/>
			<path class="st0" d="M265.7,76.1c0,17.3-13,29.8-30.9,29.8c-17.9,0-30.9-12.5-30.9-29.8c0-16.8,13.6-30,30.9-30
				S265.7,59.3,265.7,76.1z M254.1,76.1c0-10.8-8.6-19.6-19.2-19.6c-10.6,0-19.2,8.8-19.2,19.6c0,10.4,9,19.5,19.2,19.5
				C245.1,95.5,254.1,86.4,254.1,76.1z"/>
			<path class="st0" d="M202.7,94.2v10.4h-4.7c-10,0-15.5-6.2-15.5-17.4V21.8c0,0,11-2.3,11,10.7c0,13,0,54,0,54
				c0,4.9,2,7.8,5.5,7.8H202.7z"/>
			<path class="st1" d="M175.8,79.7v0.7h-47.7c1.8,9.1,9.4,15.1,19.2,15.1c6.5,0,12.5-3,17.4-8.8l0.4-0.5l8.5,6.8l-0.5,0.6
				c-7.6,8.4-15.7,12.3-25.7,12.3c-20.5,0-31.1-15.1-31.1-30c0-17.3,12.4-29.9,29.5-29.9C163.8,46.1,175.8,59.6,175.8,79.7z
				 M128.1,71.1h35.3c-1.3-8.6-8.4-14.6-17.7-14.6C134.5,56.5,129.3,64.2,128.1,71.1z"/>
			<polygon class="st1" points="117.6,47.4 96.4,104.6 87.5,104.6 87.4,104.2 72.9,62.1 58.3,104.6 49.4,104.6 49.2,104.2 
				28.3,47.4 40.1,47.4 53.7,86.7 67.3,47.4 78.6,47.4 78.7,47.9 92.1,86.7 105.8,47.4 			"/>
		</g>
		<g>
		</g>
	</g>
</g>
<g>
	<g>
		<path class="st2" d="M566.4,66.2c0,0,0.7,3.4,1.7,5.7c1.1,2.3,1,3.1,2.6,5.1c1.6,2-0.1,1,2.9,3.4c3,2.4,3,2.4,3,2.4s-4-4-5-5.8
			c-1-1.8-2-4.1-2.5-5.9c-0.5-1.9-1.3-2.8-1.5-5.6C566.9,57.1,566.4,65.4,566.4,66.2z"/>
		<path class="st2" d="M595.2,113.6c-2.5-0.1-4.8-0.3-7.1-0.6c-5.8-0.8,7.8,4.5,5.6,3.9c-2-0.6-13.6-4.2-19.2-7.1
			c-1.6-0.9-3.1-1.6-4.8-2.6c-0.6-0.4-1.7-1.3-2.3-1.7c-4.4-2.8-7.7-6.7-9.5-8c-1.7-1.2,6.4,7.2,5.8,7c-3.1-1.1-9.4-8.8-12.7-14.9
			c-2.4-4.5-4-9.8-4.5-11.3c-2.5-7.9-2.6-14.4-2.5-27.1c0.2-14.4,12.5-27.6,16.9-30.8c1.2-0.9,2.7-2.4,5.3-4.2
			c3.4-2.4,5.1-3.9,10.8-5.9c3.2-1.1,10.2-2.7,14.2-2.9c16.9-0.9,24.8,4.3,35.2,10.7c2.6,1.6,4.9,3.7,7,6c3.1,3.5-1.2-2.1,1.1,0
			c1.9,1.7,3.1,3.5,3.9,4.6c1.5,2.3,1.4,1.7,2.3,3.6c1.2,2.4,2.2,5,3.1,10.2c0.3,1.7,1.2,3.2,1.7,4.7c3.2,9.4,1.2,20.1-0.5,28.3
			c-1.7,8.2-10.2,18.4-12.4,21.5c-2,2.9-3.6,4.3-13.2,10.4c-10.5,6.6-20,6-20,6L595.2,113.6z M572.3,104.8c-2.5-1.3-5.3-4.1-5.3-4.1
			s1.3,2.1,4.6,4.7c3.3,2.6,7,3.4,7,3.4S574.8,106.1,572.3,104.8z M638.9,34.2c1.7,2.2,3.2,5.9,3.2,5.9s-0.3-2.4-2.3-6.1
			c-2-3.7-5-5.9-5-5.9S637.2,32,638.9,34.2z M566.3,102.6c-1.3-1.2-2.6-3.1-2.6-3.1s0.4,1.3,2,3.3c1.6,2,3.7,3.1,3.7,3.1
			S567.6,103.7,566.3,102.6z M596.9,30.4c0,0-5.6-0.2-9.3,0.9c-2.3,0.6-5,1.9-7.2,3.3c-2.3,1.4-2.9,1.7-5,3.3
			c-1.5,1.2-3.1,3.1-4.3,5.6c-1.2,2.5-1.7,3.5-2.5,5.4c-0.8,1.9-0.8,3.1-1.2,5.6c-0.4,2.5-0.8,6.4-0.8,6.4s-1.2-4.3,0.4-9.7
			c0.4-1.3,0.8-2.6,1.1-3.8l0-0.2c-2,4.1-3.1,8.6-3.1,13.5c0,16.7,13.2,30.3,29.5,30.3c16.3,0,29.5-13.6,29.5-30.3
			C624,44.7,612.1,31.7,596.9,30.4L596.9,30.4z"/>
	</g>
	<path class="st2" d="M536.1,154.1c-0.5,0.4-1,0.9-1.4,2.1c-0.2-0.2-0.3,0.1-0.4,0c0.2-0.3,0.2-0.7,0.4-1c-0.2-0.1-0.1-0.3-0.3-0.3
		c0,0.1-0.1,0.2-0.1,0.2c-0.4-0.1,0.1-0.8-0.3-0.9c-0.7,0-1.3,0.3-2,0.4c0-0.1,0-0.2-0.1-0.2c0.2-0.4,0.5-0.4,0.8-0.1
		c0.2-0.9,0.9-0.4,1.2-1c-0.2-0.2-0.3,0-0.4-0.1c0.1-0.2,0.2-0.2,0.1-0.4c-0.4-0.2-1.3,0.1-1.4,0.8c-0.6-0.1-0.8,0.8-1.2,1.2
		c-0.3,0.4-0.9,0.6-0.9,1.4c-0.2,0.1-0.4,0.3-0.5,0.5c-0.1,1-0.8,1.3-1.3,1.6c-0.2-0.1,0.7-2.2,2.1-4.1c1.5-2.1,3.5-4.2,3.4-4.5
		c-0.2-0.1-2.3,1.8-4,3.9c-1.4,1.7-1.9,3.9-2.6,3.7c0.2-0.4,0-0.1-0.2-0.3c0.2-0.8,0.6-1,1-1.4c-0.6,0-1.2,0.1-1.5,0.8
		c-0.3-0.1-0.2-0.5-0.5-0.6c-0.2-0.1-0.2,0.3-0.3,0.3c-0.3-0.2-0.8-0.1-0.7-0.6c0.2-0.2,0.4,0.6,0.6,0.2c0.1-0.8-0.7-1-1.2-1.1
		c0.1-0.3,0.4-0.1,0.7,0c0.2-0.1,0.4-0.6,0.2-0.9c-0.2,0.1-0.6,0-0.7-0.2c0.4-0.6,0.1-1.4,0.3-2.1c0.1,0.2,0.1,0.5,0.3,0.6
		c-0.3,0,0,0.4-0.3,0.7c0.3,0.1,0.2,0.7,0.5,0.9c0.3-0.2,0.2-1,0.5-1c0.3,0.2,0.3,0.5,0.3,0.9c0.1-0.1,0.2-0.4,0.4-0.5
		c0.1,0.3,0,0.3-0.1,0.6c0.2,0.1,0.1,0.3,0.3,0.4c0.2-0.3,0.6-0.9,0.8-1.2c0.3,0.3,0.5,0,0.6-0.3c-0.2-0.1-0.2,0.1-0.4-0.1
		c-0.1-0.2,0.2-0.2,0.1-0.4c-0.4-0.6-0.7,0.1-1.2-0.2c-0.1,0.3-0.2,0.2-0.3,0.4c-0.2-0.1-0.4-0.2-0.4-0.4c0.1,0.1,0.1-0.3,0.2-0.5
		c0.2,0.1,0.1,0.2,0.4,0.3c0.2-0.3,0.4-0.6,0.5-0.9c0-0.3-0.4,0-0.3-0.3c0.5,0,1.4-1.1,1.1-1.9c-0.2,0.1-0.1,0.4-0.2,0.7
		c-0.5-0.2-0.7,0.6-1.2,0.5c0.3,0,0.4,0.1,0.2,0.6c-0.1-0.1-0.3-0.1-0.4-0.2c0.1-0.3,0.1-0.6-0.1-0.6c0-0.3,0.2-0.7,0.2-0.9
		c-0.2-0.1-0.2,0.1-0.3,0.2c-0.3-0.2,0-0.7-0.5-0.6c0-0.5,0.4-0.9,0.4-1.4c0.4,0.1,0,0.7,0.4,0.8c0.2,0.1,0.3,0,0.4-0.2
		c-0.1-0.3,0.1-0.4,0.1-0.8c0.4,0.2,0,0.5,0,0.8c0.3,0,0.5,0.3,0.7,0c0,0,0.3-0.7,0.3-0.5c0-0.7-0.8-0.2-1.1-0.5
		c0.1-0.6,0.5-1.2,0.9-1.4c0.1-0.9-0.8-0.6-1.2-0.9c0-0.1,0.1-0.3,0.1-0.4c0.2,0,0.4,0,0.6-0.2c0-0.6,0.2-0.9,0.6-1.2
		c-0.1,0.2-0.2,0.5,0,0.6c0.2,0.2,0.2-0.1,0.4,0c-0.1,0.2-0.2,0.4,0,0.5c0.1,0,0.3,0.3,0.4,0.1c0.2-0.4-0.2-0.4-0.4-0.6
		c0-0.4,0-0.8,0.2-1.2c-0.2,0-0.3,0.1-0.4,0.2c-0.1-0.4,0.4-0.8,0.1-1c0.1-0.3,0.4-0.3,0.6-0.4c0-0.2,0-0.2-0.2-0.3
		c0.6-1.2,1.2-2.6,2-3.1c0.1-0.3-0.1-0.4-0.1-0.7c0.3-0.9,1.1-0.3,1.3-1.4c0.3,0.2,0.4-0.1,0.5-0.5c0.3,0,0.5-0.2,0.7-0.3
		c0.2-0.8,0.7-0.8,0.9-1.7c0.6-0.5,2.3-2.2,2.9-2.9l0.3-0.2c0,0,11.3-11.3,35.2-11.3c20.1,0,28.9,9.4,52.8,11.3
		c15.7,1.2,29.5-8.7,29.5-8.7l0.2-0.1c0.5,0.5,1.7-1.2,2.2-2.4c0.2,0.2,0.3-0.1,0.4,0c-0.2,0.3-0.2,0.7-0.4,1
		c0.2,0.1,0.1,0.3,0.3,0.3c0-0.1,0.1-0.2,0.1-0.2c0.4,0.1-0.1,0.8,0.3,0.9c0.7,0,1.3-0.2,2-0.4c0,0.1,0,0.2,0.1,0.2
		c-0.2,0.4-0.5,0.4-0.8,0.1c-0.2,0.9-0.9,0.4-1.2,1c0.2,0.2,0.3,0,0.4,0.1c-0.1,0.2-0.2,0.2,0,0.4c0.4,0.2,1.3-0.1,1.4-0.8
		c0.6,0.1,0.8-0.8,1.2-1.2c0.3-0.4,0.9-0.6,0.9-1.4c0.2-0.1,0.4-0.3,0.5-0.5c0.1-1,0.8-1.3,1.3-1.6c0.4,0.3,0.1,0.6,0.1,1.1
		c0.4,0.2,0.7,0,0.9-0.1c-0.2,0.4,0,0.1,0.2,0.3c-0.2,0.8-0.6,1-1,1.4c0.6,0,1.1-0.1,1.5-0.8c0.3,0.1,0.2,0.5,0.5,0.6
		c0.2,0.1,0.2-0.3,0.3-0.3c0.3,0.1,0.8,0.1,0.7,0.6c-0.2,0.2-0.4-0.6-0.6-0.2c-0.1,0.8,0.7,1,1.2,1.1c-0.1,0.3-0.4,0-0.7,0
		c-0.2,0.1-0.4,0.6-0.2,0.9c0.2-0.2,0.6,0,0.7,0.2c-0.4,0.6-0.1,1.4-0.3,2.1c-0.1-0.2-0.1-0.5-0.3-0.6c0.3,0,0-0.4,0.3-0.7
		c-0.3-0.1-0.2-0.7-0.5-0.9c-0.3,0.2-0.2,1-0.5,1c-0.3-0.2-0.3-0.5-0.3-0.9c-0.1,0.1-0.2,0.4-0.4,0.5c-0.1-0.3,0-0.3,0.1-0.6
		c-0.2-0.1-0.1-0.3-0.3-0.4c-0.2,0.3-0.6,0.9-0.8,1.2c-0.3-0.3-0.5,0-0.6,0.3c0.2,0.1,0.2-0.1,0.4,0.1c0.1,0.2-0.2,0.3-0.1,0.4
		c0.4,0.6,0.7-0.1,1.2,0.2c0.1-0.2,0.2-0.2,0.3-0.4c0.2,0.1,0.4,0.2,0.4,0.4c-0.1-0.1-0.1,0.3-0.2,0.5c-0.2-0.1-0.1-0.2-0.4-0.3
		c-0.2,0.3-0.4,0.6-0.5,0.9c0,0.3,0.4,0,0.3,0.3c-0.5,0-1.4,1.1-1.1,1.9c0.2-0.1,0.1-0.4,0.2-0.7c0.5,0.2,0.7-0.6,1.2-0.5
		c-0.3,0-0.4-0.2-0.2-0.6c0.1,0.1,0.3,0.1,0.4,0.2c-0.1,0.3-0.1,0.6,0.1,0.6c0,0.3-0.2,0.7-0.2,0.9c0.2,0.1,0.2-0.1,0.3-0.2
		c0.3,0.2,0,0.7,0.5,0.6c0,0.6-0.4,0.9-0.4,1.4c-0.4-0.1,0-0.7-0.4-0.8c-0.2-0.1-0.3,0-0.4,0.2c0.1,0.3-0.1,0.4-0.1,0.8
		c-0.4-0.2,0-0.5,0-0.8c-0.3,0-0.5-0.3-0.7-0.1c0,0-0.3,0.7-0.3,0.5c0,0.7,0.8,0.2,1.1,0.5c-0.1,0.6-0.5,1.3-0.9,1.4
		c-0.1,0.9,0.8,0.6,1.2,0.8c0,0.1-0.1,0.3-0.1,0.4c-0.2-0.1-0.4,0-0.6,0.2c0,0.6-0.2,0.9-0.6,1.2c0.1-0.2,0.2-0.5,0-0.6
		c-0.2-0.2-0.2,0.1-0.4,0c0.1-0.2,0.1-0.4,0-0.5c-0.1,0-0.3-0.3-0.4-0.1c-0.2,0.4,0.2,0.4,0.4,0.6c0,0.4,0,0.7-0.2,1.2
		c0.2,0,0.3-0.1,0.4-0.2c0.1,0.4-0.4,0.8-0.1,1c-0.2,0.3-0.4,0.3-0.6,0.4c0,0.1,0,0.2,0.2,0.3c-0.6,1.2-2.6,2.9-3.5,3.4
		c-0.1,0.3-2.6,2.6-2.7,2.9c-0.3,0.9-6.3,4.5-7.6,5.5c6.2-2.3,7.7-4,6.6-3.2l2.2-1.5c-0.6,0.5-1.9,2.3-3.5,3.8l-0.5,0.3
		c0,0-13.9,9.9-29.5,8.7c-23.9-1.8-32.7-11.2-52.8-11.2c-23.9,0-35.2,11.2-35.2,11.2L536.1,154.1z M533.4,155.8
		c0-0.1-0.1-0.1-0.2-0.2c-0.1-0.1,0.1-0.4,0-0.5c-0.2-0.1-0.3-0.1-0.4,0c0,0.3,0.4,0.4,0.4,0.7C533.2,155.7,533.3,155.8,533.4,155.8
		z M532.1,155.6c0-0.2-0.4-0.2-0.2-0.4c-0.4,0.5-1.1,0.2-1.4,0.8C530.9,156.1,531.6,155.6,532.1,155.6z M527.7,159.2
		c-0.2,0-0.3,0.2-0.4,0.6C527.5,159.7,527.8,159.4,527.7,159.2z M527.8,157.6c-0.3,0-0.6,0.3-0.9,0.1c-0.2,0.5-0.4,1.1,0.1,1.3
		C527.3,158.6,527.6,158.4,527.8,157.6z M528.4,153.3c0.1-0.2,0.2-0.5,0-0.6C528.3,153,528.2,153.3,528.4,153.3z M525.9,159.5
		c0.1-0.5-0.2-0.7-0.1-1.2c-0.4,0.2-0.5,1-0.7,1.7c0.2-0.2,0.3-0.6,0.5-0.9C525.7,159.2,525.7,159.4,525.9,159.5z M526.3,157.8
		c0.1-0.3-0.1-0.4,0.1-0.7c-0.2-0.2-0.3,0-0.4,0c0,0.5-0.2,0.7-0.2,1.2C525.9,158,526,157.7,526.3,157.8z M525.4,157.9
		c-0.3-0.1-0.5,0.3-0.8,0.1c0,0.4,0.1,0.3,0.4,0.3c-0.1,0.3-0.3,0.4-0.4,0.7c0.4,0.2,0,0.9,0.4,1.1
		C525.1,159.4,525,158.9,525.4,157.9z M525.7,157.2c0-0.4-0.5-0.2-0.8-0.1C525.1,157.6,525.4,157,525.7,157.2z M527,152.7
		c-0.1-0.1-0.2-0.2-0.4-0.2c-0.1,0.3,0.2,0.3,0.1,0.6C526.8,153.1,526.9,152.9,527,152.7z M524,159.1c0-0.1-0.2-0.2-0.3-0.3
		c-0.1,0.2,0,0.3-0.1,0.6C523.8,159.5,524,159.5,524,159.1z M524,157.5c-0.2,0-0.1-0.2-0.3-0.2c0,0.2,0.1,0.4,0,0.8
		C523.8,158,523.9,157.8,524,157.5z M525.7,151.7c-0.1-0.3-0.5-0.4-0.7-0.3C524.9,152,525.4,151.9,525.7,151.7z M523.9,156.7
		c0-0.2,0.1-0.4,0.1-0.6c-0.2,0-0.3,0.3-0.4,0.6C523.7,156.7,523.8,156.6,523.9,156.7z M524.3,155.2c-0.1-0.1-0.2-0.1-0.4-0.1
		c-0.1,0.1,0,0.2,0,0.4C524,155.4,524.2,155.5,524.3,155.2z M525.7,150.8c0.1-0.3-0.3-0.3-0.4-0.3c0.1-0.2,0.2-0.3,0.4-0.2
		c0.1-0.3-0.1-0.5,0-0.8c-0.2,0-0.5,0.7-0.6,0.4c-0.1,0.1-0.4,0.6-0.4,0.8c0.2,0.2,0.2-0.4,0.3-0.5c0.2,0.3-0.1,0.9,0.3,1.1
		C525.3,150.8,525.5,150.8,525.7,150.8z M523.7,152.6c-0.2,0.4-0.1,0.7-0.3,1.1c0.1,0,0.1,0.1,0.2,0.1
		C523.7,153.6,523.9,152.9,523.7,152.6z M526,145.4c-0.2-0.1-0.2-0.4-0.4-0.3C525.4,145.6,525.9,146,526,145.4z M525.2,146.2
		c-0.2,0.4,0.1,0.5,0,0.8C525.6,147,525.5,146.3,525.2,146.2z M524.5,149.3c-0.2-0.2-0.6,0.7-0.3,0.8
		C524.4,149.9,524.3,149.5,524.5,149.3z M524.9,148.2c-0.1-0.3,0.2-0.4,0.1-0.6c-0.4-0.3-0.3,0.4-0.5,0.7
		C524.7,148.3,524.8,148.2,524.9,148.2z M540.1,131.7 M539.6,135 M534.6,154.3c-0.1,0-0.2,0.1-0.3,0.4
		C534.6,154.8,534.6,154.5,534.6,154.3z M528.9,153c0.2-0.1,0.4-0.5,0.2-0.7c-0.1,0.2-0.2,0.4-0.3,0.4c-0.2-0.1-0.1-0.4-0.1-0.6
		c-0.2,0.1-0.3,0.5-0.5,0.7c0.1,0.2,0.1,0.5,0.1,0.7c-0.1,0.1-0.1,0-0.1-0.1c-0.1-0.1-0.1,0.3-0.2,0.4
		C528.4,154.2,529.2,153.4,528.9,153z M536,131.8c0.1-0.3,0.2-0.7,0.1-0.9c-0.2-0.1-0.3,0.2-0.5,0.2c-0.1,0.2-0.1,0.4-0.1,0.6
		C535.8,131.7,535.8,131.9,536,131.8z M527.7,155.2c0-0.1,0.1-0.2,0.1-0.3c-0.3,0.1-0.3-0.3-0.5-0.2c-0.2,0.4-0.1,0.7-0.4,0.7
		c0,0.2,0.2,0.2,0.1,0.3C527.4,155.6,527.2,154.9,527.7,155.2z M534.3,135.2c-0.2,0-1.4,0.1-1-0.9c-0.2-0.1-0.2,0.4-0.4,0.4
		c0,0.4,0.5,0.5,0.7,0.7c0,0.3-0.3,0-0.3,0.3C533.8,136,534,135.4,534.3,135.2z M526.6,155.4c-0.3-0.3-0.4-0.3-0.6-0.6
		c0.1-0.2,0.1-0.3,0.2-0.5c-0.2-0.2-0.4,0-0.6,0c0,0.3,0.1,0.4-0.1,0.6c0.1,0.3,0.5,0.4,0.5,0.7
		C526.2,155.9,526.5,155.9,526.6,155.4z M532.8,136.5c0-0.4-0.3-0.2-0.5-0.1c0,0.4-0.3,0.6-0.2,0.9
		C532.5,137.2,532.6,136.7,532.8,136.5z M530.6,140.4c-0.2,0-0.3-0.1-0.4,0.2C530.3,140.5,530.5,140.7,530.6,140.4z M529.7,141.5
		c-0.2-0.1-0.3,0.1-0.3,0.3C529.5,141.8,529.7,141.8,529.7,141.5z M526.7,148.3c-0.2-0.1-0.4,0-0.5,0.3
		C526.5,148.8,526.7,148.7,526.7,148.3z M533.3,140.6c1.1-2,3.4-4.3,3.4-4.3s-1.8,1.1-3.9,3.8c-2.2,2.7-2.7,5.6-2.7,5.6
		S532.2,142.6,533.3,140.6z M657.7,118.8c0,0.1,0.1,0.1,0.2,0.2c0.1,0.1-0.1,0.4,0,0.5c0.2,0.1,0.3,0.1,0.4,0c0-0.3-0.4-0.4-0.4-0.7
		C657.9,118.9,657.8,118.8,657.7,118.8z M659,119c0,0.2,0.4,0.2,0.2,0.4c0.4-0.5,1.1-0.2,1.4-0.8C660.2,118.5,659.5,119,659,119z
		 M651.5,147c0.3,0,0.5-0.2,0.7-0.2C652.1,146.5,651.7,146.7,651.5,147z M663.4,115.4c0.2,0,0.3-0.2,0.4-0.6
		C663.6,114.9,663.3,115.2,663.4,115.4z M663.3,117c0.3,0,0.6-0.3,0.9-0.1c0.2-0.6,0.4-1.1-0.1-1.3C663.8,116,663.5,116.2,663.3,117
		z M662.6,121.3c-0.1,0.3-0.2,0.5,0,0.6C662.7,121.6,662.9,121.3,662.6,121.3z M665.2,115.1c-0.1,0.5,0.2,0.7,0.1,1.2
		c0.4-0.2,0.5-1,0.7-1.7c-0.2,0.2-0.3,0.6-0.5,0.9C665.3,115.4,665.4,115.1,665.2,115.1z M664.8,116.8c-0.1,0.3,0.1,0.4-0.1,0.7
		c0.2,0.2,0.3,0,0.4,0c0-0.5,0.2-0.7,0.2-1.2C665.2,116.6,665.1,116.9,664.8,116.8z M665.7,116.7c0.3,0.1,0.5-0.3,0.8-0.1
		c0-0.4-0.1-0.2-0.4-0.3c0.1-0.3,0.3-0.4,0.4-0.7c-0.4-0.2,0-0.9-0.3-1.1C666,115.2,666.1,115.7,665.7,116.7z M665.4,117.4
		c0,0.5,0.5,0.2,0.8,0.1C666,117,665.7,117.6,665.4,117.4z M664.1,121.9c0.1,0.1,0.2,0.2,0.4,0.2c0.1-0.3-0.2-0.3-0.1-0.6
		C664.3,121.5,664.2,121.7,664.1,121.9z M667.1,115.5c0,0.1,0.2,0.2,0.4,0.3c0.1-0.2,0-0.3,0.1-0.6
		C667.3,115,667.1,115.1,667.1,115.5z M667.1,117.1c0.2,0,0.1,0.2,0.3,0.2c0-0.2-0.1-0.4,0-0.7C667.2,116.6,667.2,116.8,667.1,117.1
		z M665.4,122.9c0.1,0.3,0.5,0.4,0.7,0.3C666.2,122.6,665.6,122.7,665.4,122.9z M667.2,117.9c0,0.2-0.1,0.4-0.1,0.6
		c0.2,0,0.3-0.3,0.4-0.6C667.3,117.9,667.3,118,667.2,117.9z M666.8,119.4c0.1,0.1,0.2,0.1,0.3,0.1c0.1-0.1,0-0.2,0.1-0.4
		C667.1,119.2,666.9,119.1,666.8,119.4z M665.4,123.8c-0.1,0.3,0.3,0.3,0.4,0.3c-0.1,0.2-0.2,0.3-0.4,0.2c-0.1,0.3,0.1,0.5,0,0.8
		c0.2,0,0.5-0.7,0.6-0.4c0.1-0.2,0.4-0.6,0.4-0.8c-0.2-0.2-0.2,0.4-0.3,0.5c-0.2-0.3,0.1-0.9-0.3-1.1
		C665.8,123.7,665.6,123.8,665.4,123.8z M667.4,122c0.2-0.4,0.1-0.7,0.3-1.1c-0.1,0-0.1-0.1-0.2-0.1
		C667.4,121,667.2,121.7,667.4,122z M665,129.2c0.2,0.1,0.2,0.4,0.4,0.3C665.7,129,665.2,128.6,665,129.2z M665.9,128.4
		c0.2-0.4-0.1-0.5,0-0.8C665.5,127.6,665.6,128.3,665.9,128.4z M666.5,125.3c0.2,0.2,0.6-0.7,0.3-0.8
		C666.7,124.7,666.8,125.1,666.5,125.3z M666.2,126.4c0.1,0.3-0.2,0.4-0.1,0.6c0.4,0.3,0.3-0.4,0.5-0.7
		C666.4,126.3,666.3,126.4,666.2,126.4z M651,142.9 M651.5,139.6 M654.3,132.4c0.5,0.5,4.3-4,4.4-4.5c-1.1,1.4-2,2.3-2.5,2.1
		c-0.1,0.5-1,1-1.1,1.4L654.3,132.4z M654.7,132.4 M656.5,120.3c0.1,0,0.2-0.1,0.3-0.4C656.5,119.8,656.5,120.1,656.5,120.3z
		 M662.2,118.7c0.3,0.2,0.3-0.4,0.6-0.1c0.2-0.4,0.1-0.6,0.2-1C662.3,117.5,661.8,118.1,662.2,118.7z M662.2,121.6
		c-0.2,0.1-0.5,0.5-0.2,0.7c0.1-0.2,0.2-0.4,0.3-0.4c0.3,0.1,0.1,0.4,0.2,0.6c0.2-0.1,0.3-0.5,0.5-0.7c-0.1-0.2-0.1-0.5-0.1-0.7
		c0.1-0.1,0.1,0,0.1,0.1c0.1,0.1,0.1-0.3,0.2-0.4C662.7,120.4,661.9,121.2,662.2,121.6z M655.1,142.8c-0.1,0.3-0.2,0.7-0.1,0.9
		c0.2,0.1,0.3-0.2,0.5-0.1c0.1-0.2,0.1-0.4,0.1-0.6C655.3,142.9,655.3,142.7,655.1,142.8z M663.4,119.4c0,0.1-0.1,0.2-0.1,0.3
		c0.3-0.1,0.3,0.3,0.5,0.2c0.2-0.4,0.1-0.7,0.4-0.7c0-0.2-0.2-0.2-0.1-0.3C663.7,119,663.8,119.7,663.4,119.4z M656.8,139.4
		c0.2-0.1,1.4-0.1,1,0.9c0.2,0.1,0.2-0.4,0.4-0.4c0-0.4-0.5-0.5-0.7-0.7c0-0.3,0.3,0,0.3-0.3C657.3,138.6,657.1,139.2,656.8,139.4z
		 M664.5,119.2c0.3,0.3,0.4,0.3,0.6,0.6c-0.1,0.2-0.1,0.3-0.2,0.5c0.3,0.2,0.4,0,0.6,0c0-0.3-0.1-0.4,0.1-0.6
		c-0.1-0.3-0.5-0.4-0.5-0.7C664.9,118.7,664.6,118.7,664.5,119.2z M658.3,138.1c0,0.4,0.3,0.2,0.5,0.1c0-0.4,0.3-0.6,0.1-0.9
		C658.6,137.3,658.5,137.9,658.3,138.1z M660.5,134.2c0.2,0,0.3,0.1,0.4-0.2C660.8,134.1,660.6,133.9,660.5,134.2z M661.4,133.1
		c0.2,0.1,0.3-0.1,0.3-0.3C661.6,132.8,661.4,132.8,661.4,133.1z M664.4,126.3c0.2,0.1,0.4,0,0.5-0.3
		C664.6,125.8,664.4,125.9,664.4,126.3z"/>
</g>
</svg>
