<?xml version="1.0" encoding="UTF-8"?><svg id="Layer_1" xmlns="http://www.w3.org/2000/svg" viewBox="0 0 719 175"><g><path d="M379.11,85.52h-9.56l-6.62-43.61-6.71,43.61h-9.81l-8.05-57.78h7.3l6.12,49.81,6.96-43.11h8.89l6.62,43.11,6.88-49.81h6.71l-8.72,57.78Z"/><path d="M410.89,80.58c4.53,0,7.88-1.34,11.82-3.94l3.27,4.7c-4.11,3.19-9.64,5.12-15.1,5.12-12.92,0-20.21-9.23-20.21-22.98s7.46-23.06,19.21-23.06,18.03,8.3,18.03,21.72c0,1.51-.08,2.85-.17,3.77h-29.69c.34,10.23,6.04,14.68,12.83,14.68Zm-12.83-20.04h22.98c-.17-9.48-4.36-14.34-11.07-14.34s-11.32,4.61-11.91,14.34Z"/><path d="M474.62,41.33l-1.01,15.01h-5.7v-9.48h-.42c-6.79,0-11.66,4.86-14.51,14.59v18.62h8.97v5.45h-22.98v-5.45h6.96V46.78h-6.96v-5.45h12.24l1.34,10.48c3.35-7.21,7.88-11.41,15.85-11.41,2.43,0,4.28,.42,6.21,.92Z"/><path d="M484.68,41.33h6.04l.59,6.21c3.52-4.53,9.39-7.13,14.59-7.13,8.64,0,12.41,4.86,12.41,13.08v32.04h-7.04v-26.84c0-9.06-.92-12.66-7.55-12.66-5.2,0-9.64,3.86-11.99,7.38v32.12h-7.04V41.33Z"/><path d="M549.25,80.58c4.53,0,7.88-1.34,11.82-3.94l3.27,4.7c-4.11,3.19-9.64,5.12-15.09,5.12-12.92,0-20.21-9.23-20.21-22.98s7.46-23.06,19.2-23.06,18.03,8.3,18.03,21.72c0,1.51-.08,2.85-.17,3.77h-29.69c.34,10.23,6.04,14.68,12.83,14.68Zm-12.83-20.04h22.98c-.17-9.48-4.36-14.34-11.07-14.34s-11.32,4.61-11.91,14.34Z"/><path d="M612.99,41.33l-1.01,15.01h-5.7v-9.48h-.42c-6.79,0-11.66,4.86-14.51,14.59v18.62h8.97v5.45h-22.98v-5.45h6.96V46.78h-6.96v-5.45h12.24l1.34,10.48c3.35-7.21,7.88-11.41,15.85-11.41,2.43,0,4.28,.42,6.21,.92Z"/></g><g><path d="M369.33,127.3l15.18,24.49h-15.6l-12.58-22.22h-3.86v22.22h-13.75v-58.12h18.28c15.85,0,23.9,5.62,23.9,17.69,0,8.3-5.12,13.33-11.57,15.93Zm-12.33-23.99h-4.53v16.77h5.12c5.95,0,9.14-2.6,9.14-8.72,0-5.62-3.27-8.05-9.73-8.05Z"/><path d="M408.08,143.57c4.03,0,7.88-1.43,11.41-3.69l5.28,7.21c-4.19,3.61-10.23,6.12-17.78,6.12-15.26,0-23.15-9.81-23.15-23.65s7.72-23.82,21.72-23.82c12.75,0,20.88,8.55,20.88,22.89,0,1.51-.08,3.44-.25,4.78h-28.85c.92,7.3,5.03,10.15,10.73,10.15Zm-10.9-18.2h16.35c-.08-6.46-2.35-10.73-7.97-10.73-4.7,0-7.8,3.35-8.39,10.73Z"/><path d="M457.21,139.54c0-2.85-1.68-3.94-10.57-6.37-8.13-2.18-13.75-5.7-13.75-13.59s6.79-13.84,19.29-13.84c7.97,0,13.67,2.26,18.03,5.45l-5.28,7.8c-3.69-2.26-8.05-3.77-12.33-3.77s-6.37,1.09-6.37,3.44,1.76,3.27,10.48,5.7c8.64,2.43,14.26,5.37,14.26,14.09,0,9.81-9.73,14.76-21.05,14.76-8.64,0-15.26-2.68-19.79-6.71l6.62-7.46c3.44,2.68,7.88,4.7,13.08,4.7,4.44,0,7.38-1.34,7.38-4.19Z"/><path d="M500.32,143.57c4.03,0,7.88-1.43,11.41-3.69l5.28,7.21c-4.19,3.61-10.23,6.12-17.78,6.12-15.26,0-23.15-9.81-23.15-23.65s7.72-23.82,21.72-23.82c12.75,0,20.88,8.55,20.88,22.89,0,1.51-.08,3.44-.25,4.78h-28.85c.92,7.3,5.03,10.15,10.73,10.15Zm-10.9-18.2h16.35c-.08-6.46-2.35-10.73-7.97-10.73-4.7,0-7.8,3.35-8.39,10.73Z"/><path d="M564.64,144.32l-2.77,8.72c-5.2-.5-8.81-2.18-10.9-5.87-3.44,4.11-9.06,6.04-14.59,6.04-9.22,0-15.09-5.79-15.09-14,0-9.64,7.97-15.18,21.72-15.18h5.95v-1.59c0-4.7-3.1-6.88-8.8-6.88-2.85,0-7.8,.84-12.24,2.35l-3.02-8.81c5.79-2.18,12.41-3.35,17.36-3.35,13.25,0,19.46,5.53,19.46,15.77v17.44c0,3.35,.84,4.61,2.94,5.37Zm-15.68-5.45v-7.3h-3.27c-7.38,0-10.73,2.35-10.73,6.71,0,3.44,2.18,5.45,5.95,5.45,2.85,0,6.37-1.76,8.05-4.86Z"/><path d="M611.68,107.26l-2.43,18.62h-8.39v-8.22c-5.03,.92-8.89,5.87-10.99,12.5v12.75h8.81v8.89h-27.93v-8.89h5.87v-26.84h-5.87v-8.81h16.02l2.35,9.98c3.19-7.63,8.05-11.32,15.18-11.32,3.02,0,5.28,.5,7.38,1.34Z"/><path d="M650,138.96l5.87,8.39c-3.94,3.35-9.64,5.87-16.52,5.87-14.42,0-22.98-9.48-22.98-23.4s8.89-24.07,23.23-24.07c6.71,0,11.82,1.93,16.27,5.62l-5.7,7.97c-3.02-2.1-6.37-3.35-9.98-3.35-6.04,0-9.98,3.77-9.98,13.84s4.19,12.91,9.9,12.91c3.61,0,6.71-1.59,9.9-3.77Z"/><path d="M675.83,111.7c3.77-4.03,8.13-5.95,13.08-5.95,7.88,0,12.24,4.86,12.24,13.33v32.71h-13.25v-29.02c0-5.37-1.01-7.21-4.28-7.21-2.85,0-5.28,2.1-7.8,5.45v30.78h-13.25v-62.23l13.25-1.34v23.48Z"/></g><g><path d="M111.54,143.97l9.87-16.94L55.65,14.5H13.29L101.1,161.89l10.43-17.92Z"/><path d="M178.61,143.97l9.87-16.94L122.73,14.5h-42.36l87.81,147.39,10.43-17.92Z"/><path d="M256.48,161.89h-20.34l-48.54-81.2h52.6c8.98-.05,16.24-7.24,16.24-16.11s-7.19-15.98-16.1-16.11c-.08,0-.15,0-.23,0h-71.93l-19.86-33.98h99.43c28.21,.08,51.05,23.06,51.05,51.41s-22.83,51.32-51.03,51.41h-.16l26.31,44.55v.02h-17.45Z"/></g></svg>